<svg id="Layer_1" data-name="Layer 1" xmlns="http://www.w3.org/2000/svg" viewBox="0 0 24.96 24.96"><defs><style>.cls-1{fill:#fff;}</style></defs><title>connect</title><path class="cls-1" d="M12.48,24.8v-.16a12.19,12.19,0,1,1,8.59-3.57,12.12,12.12,0,0,1-8.59,3.57V25A12.48,12.48,0,1,0,0,12.48,12.5,12.5,0,0,0,12.48,25Zm0-24.27V.37A12.11,12.11,0,1,0,24.59,12.48,12.13,12.13,0,0,0,12.48.37V.7A11.78,11.78,0,1,1,4.15,4.15,11.75,11.75,0,0,1,12.48.7Z"/><path class="cls-1" d="M18.58,13.67V11.25a2.11,2.11,0,1,0-2-3.37L14.45,6.67a2.07,2.07,0,0,0,.15-.77,2.12,2.12,0,1,0-4.24,0,2.07,2.07,0,0,0,.15.77L8.35,7.88a2.11,2.11,0,1,0-2,3.37v2.48a2.11,2.11,0,1,0,2,3.38l2.16,1.21a2.12,2.12,0,1,0,4.1.74,2,2,0,0,0-.15-.76l2.2-1.23a2.07,2.07,0,0,0,1.64.8,2.11,2.11,0,0,0,.29-4.2m-.29,3.62a1.54,1.54,0,1,1,1.54-1.54,1.54,1.54,0,0,1-1.54,1.54M12.48,20.6A1.54,1.54,0,1,1,14,19.06a1.54,1.54,0,0,1-1.54,1.54M6.67,17.36A1.54,1.54,0,1,1,8.2,15.82a1.53,1.53,0,0,1-1.53,1.54m0-9.73A1.54,1.54,0,1,1,5.14,9.16,1.53,1.53,0,0,1,6.67,7.63M18.29,10.7a1.54,1.54,0,1,1,1.54-1.54,1.54,1.54,0,0,1-1.54,1.54M14.6,12.48a1.91,1.91,0,0,0-.16-.78l2.18-1.25a2.11,2.11,0,0,0,1.38.8v2.42a2.11,2.11,0,0,0-1.41.83l-2.15-1.23a2,2,0,0,0,.16-.79m-4.08.79L8.34,14.53A2.1,2.1,0,0,0,7,13.74V11.25a2.09,2.09,0,0,0,1.38-.8l2.18,1.25a2.09,2.09,0,0,0-.16.78,2.14,2.14,0,0,0,.16.79m3.5-.79A1.54,1.54,0,1,1,12.48,11,1.54,1.54,0,0,1,14,12.48m2.16-3.32a2.17,2.17,0,0,0,.15.79l-2.18,1.24a2.13,2.13,0,0,0-1.38-.8V8a2.1,2.1,0,0,0,1.39-.81l2.16,1.21a2.28,2.28,0,0,0-.14.77m-4,1.23a2.15,2.15,0,0,0-1.38.8L8.63,10a2,2,0,0,0,.16-.79,2.07,2.07,0,0,0-.15-.77L10.8,7.18A2.1,2.1,0,0,0,12.19,8Zm-3.4,5.43A2.18,2.18,0,0,0,8.63,15l2.18-1.25a2.14,2.14,0,0,0,1.38.79V17a2,2,0,0,0-1.41.83l-2.15-1.2a2,2,0,0,0,.16-.79m4-1.25a2.14,2.14,0,0,0,1.38-.79L16.31,15a2,2,0,0,0-.13.73,2,2,0,0,0,.17.82l-2.18,1.22a2.07,2.07,0,0,0-1.4-.81Zm-.29-10.2A1.53,1.53,0,1,1,11,5.9a1.53,1.53,0,0,1,1.53-1.53"/></svg>