<svg id="Layer_1" data-name="Layer 1" xmlns="http://www.w3.org/2000/svg" viewBox="0 0 24.96 24.96"><defs><style>.cls-1{fill:#fff;}</style></defs><title>do-more</title><polygon class="cls-1" points="18.77 10.39 18.77 16.69 5.62 16.69 5.62 9.16 14.26 9.16 14.26 8.43 4.95 8.43 4.95 17.43 19.44 17.43 19.44 10.39 18.77 10.39"/><path class="cls-1" d="M12.48,24.8A12.32,12.32,0,1,1,24.8,12.48,12.34,12.34,0,0,1,12.48,24.8m0-24.26a11.95,11.95,0,1,0,12,11.94A12,12,0,0,0,12.48.54"/><path class="cls-1" d="M12.48,24.8v-.16a12.19,12.19,0,1,1,8.59-3.57,12.08,12.08,0,0,1-8.59,3.57V25A12.48,12.48,0,1,0,0,12.48,12.5,12.5,0,0,0,12.48,25Zm0-24.26V.37A12.11,12.11,0,1,0,24.59,12.48,12.13,12.13,0,0,0,12.48.37V.7A11.78,11.78,0,1,1,4.15,4.15,11.75,11.75,0,0,1,12.48.7Z"/><path class="cls-1" d="M19.38,6.08h-4a1.53,1.53,0,0,0-1.51,1.54V9.3a1.53,1.53,0,0,0,1.51,1.54h.49l.08,1.86,1.82-1.86h1.66a1.52,1.52,0,0,0,1.5-1.54V7.62a1.52,1.52,0,0,0-1.5-1.54m-2.9,5.09-.05-1h-1.1a.87.87,0,0,1-.86-.87V7.62a.87.87,0,0,1,.86-.87h4a.86.86,0,0,1,.85.87V9.3a.86.86,0,0,1-.85.87H17.46Z"/></svg>