<svg id="Layer_1" data-name="Layer 1" xmlns="http://www.w3.org/2000/svg" viewBox="0 0 24.96 24.96"><defs><style>.cls-1{fill:#fff;}</style></defs><title>get-more</title><path class="cls-1" d="M12.48,24.8A12.32,12.32,0,1,1,24.8,12.48,12.34,12.34,0,0,1,12.48,24.8m0-24.27a12,12,0,1,0,12,12A12,12,0,0,0,12.48.53"/><path class="cls-1" d="M12.48,24.8v-.16a12.19,12.19,0,1,1,8.59-3.57,12.12,12.12,0,0,1-8.59,3.57V25A12.48,12.48,0,1,0,0,12.48,12.5,12.5,0,0,0,12.48,25Zm0-24.27V.37A12.11,12.11,0,1,0,24.59,12.48,12.12,12.12,0,0,0,12.48.37V.7A11.78,11.78,0,1,1,4.15,4.15,11.75,11.75,0,0,1,12.48.7Z"/><path class="cls-1" d="M12.77,11.24l-.21-.05c-1-.19-1.88-.41-1.91-1.13a.79.79,0,0,1,.24-.61,2.41,2.41,0,0,1,1.62-.56,2.08,2.08,0,0,1,1.82.84l.07.13.54-.33-.07-.12A2.54,2.54,0,0,0,12.76,8.3V7.38h-.51V8.3c-1.05.08-2.22.6-2.19,1.79s1.25,1.44,2.31,1.67h.06c1.06.21,2.05.41,2.05,1.3s-1.28,1.14-2,1.14c-.37,0-1.62-.07-2.07-.91l-.07-.12-.52.29.06.12a2.8,2.8,0,0,0,2.33,1.22v.88h.5v-.87c1.7-.09,2.31-1,2.31-1.74,0-1.33-1.22-1.6-2.29-1.84"/><path class="cls-1" d="M16.88,4.49H8.08A1.48,1.48,0,0,0,6.61,6V17.61a1.48,1.48,0,0,0,1.47,1.48h6.3v1a.37.37,0,0,0,.17.32.38.38,0,0,0,.36,0l.57-.53.5.48.07.05.15,0a.42.42,0,0,0,.21-.06.4.4,0,0,0,.17-.32v-1h.3a1.49,1.49,0,0,0,1.48-1.48V6a1.49,1.49,0,0,0-1.48-1.48m0,14h-.3v-.38a1.72,1.72,0,1,0-2.2,0v.38H8.08a.91.91,0,0,1-.91-.91V6a.91.91,0,0,1,.91-.91h8.8a.91.91,0,0,1,.91.91V17.61a.91.91,0,0,1-.91.91m-1.4-2.84a1.15,1.15,0,1,1-1.15,1.15,1.16,1.16,0,0,1,1.15-1.15M16,18.46v1.18l-.3-.29-.08-.06a.39.39,0,0,0-.3,0l-.38.35V18.46a1.61,1.61,0,0,0,1.06,0"/></svg>