<svg id="Layer_2" data-name="Layer 2" xmlns="http://www.w3.org/2000/svg" viewBox="0 0 98.96 98.96"><defs><style>.cls-1{fill:#74cdde;}.cls-2{fill:#17355e;}</style></defs><title>Artboard 2</title><path class="cls-1" d="M.42,49.57A49.22,49.22,0,1,1,49.63,98.78,49.22,49.22,0,0,1,.42,49.57Z"/><path class="cls-2" d="M76.21,31.15a13,13,0,0,0-5.73-8.62L65.2,19.31a10.87,10.87,0,0,0-4.07-1.48,10.07,10.07,0,0,0-1.64-.13,10.59,10.59,0,0,0-8.86,4.66l-2.2,3.33A9.8,9.8,0,0,0,47,33.27a10.38,10.38,0,0,0,4.76,6.6L56.6,42.8a5.84,5.84,0,0,1-.07,1.65A21,21,0,0,1,53.27,52a21.79,21.79,0,0,1-5.6,6,6.69,6.69,0,0,1-1.79.91h0l-4.9-3a11,11,0,0,0-14.54,3l-2.2,3.34a9.79,9.79,0,0,0-1.37,7.78,10.31,10.31,0,0,0,4.73,6.4l5.28,3.22a11.87,11.87,0,0,0,4.5,1.61,15,15,0,0,0,2.14.16c4.47,0,9.54-1.93,14.65-5.57A55.59,55.59,0,0,0,67.88,61.31a56.85,56.85,0,0,0,7.49-16.06A29.94,29.94,0,0,0,76.21,31.15ZM70.59,44.08A52,52,0,0,1,63.78,58.6c-7,10.55-17,17.93-24.28,17.93a9.52,9.52,0,0,1-1.43-.11,6.85,6.85,0,0,1-2.66-.94l-5.29-3.22a5.43,5.43,0,0,1-2.51-3.37A4.83,4.83,0,0,1,28.3,65l2.2-3.33a5.78,5.78,0,0,1,4.83-2.39,5.9,5.9,0,0,1,3.06.83l5.28,3.22a3.71,3.71,0,0,0,2,.53c3.39,0,8.09-3.67,11.71-9.14a25.68,25.68,0,0,0,4-9.45c.5-3.12-.12-5.37-1.77-6.36l-5.27-3.21a5.4,5.4,0,0,1-2.52-3.46,4.89,4.89,0,0,1,.7-3.81l2.2-3.32a5.69,5.69,0,0,1,4.76-2.47,7,7,0,0,1,.92.07,6.12,6.12,0,0,1,2.24.82l5.28,3.23a8.12,8.12,0,0,1,3.5,5.51C72.14,35.46,71.85,39.55,70.59,44.08Z"/></svg>