<?xml version="1.0" encoding="utf-8"?>
<!-- Generator: Adobe Illustrator 22.0.1, SVG Export Plug-In . SVG Version: 6.00 Build 0)  -->
<svg version="1.1" id="Layer_1" xmlns="http://www.w3.org/2000/svg" xmlns:xlink="http://www.w3.org/1999/xlink" x="0px" y="0px"
	 viewBox="0 0 99 99" style="enable-background:new 0 0 99 99;" xml:space="preserve">
<style type="text/css">
	.st0{fill:#DE4841;}
	.st1{fill:#17355E;}
</style>
<g>
	<path sketch:type="MSShapeGroup" class="st0" d="M0.4,49.5c0-27.1,22-49.1,49.1-49.1s49.1,22,49.1,49.1s-22,49.1-49.1,49.1
		S0.4,76.6,0.4,49.5z"/>
	<path class="st1" d="M79.9,24.7H20c-1.4,0-2.5,1.1-2.5,2.5v36.6c0,1.4,1.1,2.5,2.5,2.5h27V70H32.8c-1.4,0-2.5,1.1-2.5,2.5
		c0,1.4,1.1,2.5,2.5,2.5h35.4c1.4,0,2.5-1.1,2.5-2.5c0-1.4-1.1-2.5-2.5-2.5H51.9v-3.9h28c1.4,0,2.5-1.1,2.5-2.5V27.1
		C82.4,25.8,81.3,24.7,79.9,24.7z M77.7,61.2l-55.2-0.1V29.7l55-0.1L77.7,61.2z"/>
</g>
</svg>
