<svg id="Layer_3" data-name="Layer 3" xmlns="http://www.w3.org/2000/svg" viewBox="0 0 98.96 98.96"><defs><style>.cls-1{fill:#f8b42c;}.cls-2{fill:#17355e;}</style></defs><title>wifi</title><path class="cls-1" d="M-.06,49.79A49.13,49.13,0,1,1,49.07,98.91,49.13,49.13,0,0,1-.06,49.79Z"/><path class="cls-2" d="M49,49.49A14.24,14.24,0,0,0,35.58,59a2.45,2.45,0,0,0,4.63,1.62,9.31,9.31,0,0,1,17.65.2,2.45,2.45,0,1,0,4.66-1.52A14.18,14.18,0,0,0,49,49.49Z"/><path class="cls-2" d="M49,39.61a24.17,24.17,0,0,0-20.86,12A2.45,2.45,0,0,0,29,55a2.52,2.52,0,0,0,1.23.33,2.46,2.46,0,0,0,2.12-1.23,19.2,19.2,0,0,1,33.35.19,2.45,2.45,0,0,0,2.14,1.25A2.46,2.46,0,0,0,70,51.88,24.15,24.15,0,0,0,49,39.61Z"/><path class="cls-2" d="M77.35,45a34,34,0,0,0-56.56-.22,2.45,2.45,0,0,0,4.07,2.74,29.09,29.09,0,0,1,48.4.18,2.46,2.46,0,0,0,2,1.1,2.41,2.41,0,0,0,1.35-.41A2.44,2.44,0,0,0,77.35,45Z"/><path class="cls-2" d="M49,60.53a4.66,4.66,0,1,0,4.71,4.66A4.69,4.69,0,0,0,49,60.53Z"/></svg>